<svg width="37" height="32" viewBox="0 0 37 32" fill="none" xmlns="http://www.w3.org/2000/svg">
<path d="M14.8977 1.16927L1.28579 14.2186C0.488129 14.9832 0.461403 16.2497 1.22615 17.0446L14.2754 30.6566C15.0401 31.4569 16.3065 31.4836 17.1015 30.7162C17.8966 29.9488 17.9285 28.6879 17.1612 27.8901L7.45249 17.7629L34.6203 18.3362C35.7241 18.3595 36.6388 17.4826 36.6621 16.3788C36.6854 15.275 35.8085 14.3603 34.7047 14.337L7.53689 13.7637L17.6642 4.05501C18.0643 3.67402 18.2697 3.16623 18.2806 2.65434C18.2914 2.14244 18.1102 1.62649 17.7238 1.22891C16.9591 0.431252 15.6954 0.404582 14.8977 1.16927V1.16927Z" fill="#6E767D"/>
</svg>
